<svg width="24" height="24" viewBox="0 0 24 24" fill="none" xmlns="http://www.w3.org/2000/svg">
<g id="ic/expand">
<path id="icon" fill-rule="evenodd" clip-rule="evenodd" d="M14.5 7.5L12 10L9.5 7.5C9.22386 7.22386 8.77614 7.22386 8.5 7.5C8.22386 7.77614 8.22386 8.22386 8.5 8.5L11.2929 11.2929C11.6834 11.6834 12.3166 11.6834 12.7071 11.2929L15.5 8.5C15.7761 8.22386 15.7761 7.77614 15.5 7.5C15.2239 7.22386 14.7761 7.22386 14.5 7.5ZM14.5 13.5L12 16L9.5 13.5C9.22386 13.2239 8.77614 13.2239 8.5 13.5C8.22386 13.7761 8.22386 14.2239 8.5 14.5L11.2929 17.2929C11.6834 17.6834 12.3166 17.6834 12.7071 17.2929L15.5 14.5C15.7761 14.2239 15.7761 13.7761 15.5 13.5C15.2239 13.2239 14.7761 13.2239 14.5 13.5Z" fill="#41F6D7"/>
</g>
</svg>
